<svg width="24" height="13" viewBox="0 0 24 13" fill="none" xmlns="http://www.w3.org/2000/svg">
<path fill-rule="evenodd" clip-rule="evenodd" d="M18 6C19.66 6 20.99 4.66 20.99 3C20.99 1.34 19.66 0 18 0C17.68 0 17.37 0.05 17.09 0.14C17.66 0.95 17.99 1.93 17.99 3C17.99 4.07 17.65 5.04 17.09 5.86C17.37 5.95 17.68 6 18 6ZM8 5H5V2H3V5H0V7H3V10H5V7H8V5ZM15.99 3C15.99 4.66 14.66 6 13 6C11.34 6 10 4.66 10 3C10 1.34 11.34 0 13 0C14.66 0 15.99 1.34 15.99 3ZM19.62 8.16C20.45 8.89 21 9.82 21 11V13H24V11C24 9.46 21.63 8.51 19.62 8.16ZM7 11C7 9 11 8 13 8C15 8 19 9 19 11V13H7V11Z" fill="#27B09A" fill-opacity="0.54"/>
</svg>
