<svg width="22" height="20" viewBox="0 0 22 20" fill="none" xmlns="http://www.w3.org/2000/svg">
<path d="M10.53 0C4.72388 0 0 4.4861 0 10C0 15.5139 4.72388 20 10.53 20C16.3362 20 21.0601 15.5139 21.0601 10C21.0601 4.4861 16.3362 0 10.53 0ZM10.53 18.75C5.44947 18.75 1.31626 14.8248 1.31626 10C1.31626 5.17517 5.44947 1.25001 10.53 1.25001C15.6106 1.25001 19.7438 5.17517 19.7438 10C19.7438 14.8248 15.6106 18.75 10.53 18.75Z" fill="black" fill-opacity="0.5"/>
<path d="M11.1882 3.75002H9.87191V10.2588L14.0135 14.1919L14.9441 13.3081L11.1882 9.74122V3.75002Z" fill="black" fill-opacity="0.5"/>
</svg>
