<svg width="12" height="17" viewBox="0 0 12 17" fill="none" xmlns="http://www.w3.org/2000/svg">
<path fill-rule="evenodd" clip-rule="evenodd" d="M5.95 0C2.6605 0 0 2.6605 0 5.95C0 10.4125 5.95 17 5.95 17C5.95 17 11.9 10.4125 11.9 5.95C11.9 2.6605 9.2395 0 5.95 0ZM1.7 5.95C1.7 3.604 3.604 1.7 5.95 1.7C8.296 1.7 10.2 3.604 10.2 5.95C10.2 8.398 7.752 12.0615 5.95 14.348C4.182 12.0785 1.7 8.3725 1.7 5.95ZM3.825 5.95C3.825 4.77639 4.77639 3.825 5.95 3.825C6.70919 3.825 7.41071 4.23002 7.7903 4.8875C8.1699 5.54498 8.1699 6.35502 7.7903 7.0125C7.41071 7.66998 6.70919 8.075 5.95 8.075C4.77639 8.075 3.825 7.12361 3.825 5.95Z" fill="black" fill-opacity="0.54"/>
</svg>
