<svg width="30" height="33" viewBox="0 0 30 33" fill="none" xmlns="http://www.w3.org/2000/svg">
<circle cx="25.5206" cy="5.00378" r="4.08742" fill="white" stroke="#27B09A" stroke-width="0.78389"/>
<circle cx="14.5601" cy="18.6019" r="13.6781" fill="white" stroke="#27B09A" stroke-width="1.4398"/>
<path d="M24 21.5231C23.9987 20.743 23.7405 19.9849 23.2651 19.3651C22.7896 18.7452 22.1232 18.2979 21.368 18.0916C21.7283 17.8127 21.9922 17.4286 22.1226 16.993C22.2531 16.5575 22.2437 16.0922 22.0957 15.6622C21.9477 15.2322 21.6685 14.859 21.2972 14.5948C20.9259 14.3306 20.481 14.1886 20.0247 14.1886C19.5684 14.1886 19.1235 14.3306 18.7522 14.5948C18.3809 14.859 18.1018 15.2322 17.9538 15.6622C17.8058 16.0922 17.7964 16.5575 17.9269 16.993C18.0573 17.4286 18.3211 17.8127 18.6815 18.0916C18.2796 18.1975 17.8998 18.3734 17.5595 18.6112C17.0578 18.2215 16.4759 17.9472 15.8554 17.8077C16.3241 17.4932 16.6791 17.0371 16.868 16.5065C17.0569 15.9759 17.0698 15.3989 16.9048 14.8605C16.7397 14.3221 16.4055 13.8507 15.9513 13.5157C15.4971 13.1808 14.9469 13 14.3817 13C13.8166 13 13.2664 13.1808 12.8122 13.5157C12.358 13.8507 12.0237 14.3221 11.8587 14.8605C11.6937 15.3989 11.7066 15.9759 11.8955 16.5065C12.0844 17.0371 12.4394 17.4932 12.9081 17.8077C12.3336 17.9358 11.7911 18.1782 11.3131 18.5205C11.0049 18.3222 10.6672 18.1733 10.3125 18.0795C10.6747 17.8004 10.9402 17.4154 11.0719 16.9784C11.2035 16.5415 11.1947 16.0744 11.0466 15.6427C10.8986 15.211 10.6187 14.8362 10.2462 14.5708C9.87367 14.3055 9.42717 14.1628 8.96921 14.1628C8.51124 14.1628 8.06474 14.3055 7.69223 14.5708C7.31971 14.8362 7.03983 15.211 6.89177 15.6427C6.7437 16.0744 6.73488 16.5415 6.86653 16.9784C6.99817 17.4154 7.2637 17.8004 7.62592 18.0795C6.86986 18.2874 6.20331 18.7371 5.72886 19.3593C5.2544 19.9815 4.99832 20.7417 5.00001 21.5231V23.124H9.4574V24H19.3122V23.124H24V21.5231ZM20.0217 15.3911C20.216 15.3911 20.406 15.4485 20.5675 15.5561C20.7291 15.6636 20.855 15.8165 20.9294 15.9953C21.0037 16.1741 21.0232 16.3709 20.9853 16.5608C20.9474 16.7506 20.8538 16.925 20.7164 17.0619C20.579 17.1987 20.4039 17.292 20.2134 17.3297C20.0228 17.3675 19.8253 17.3481 19.6457 17.274C19.4662 17.2 19.3128 17.0745 19.2048 16.9136C19.0969 16.7526 19.0393 16.5634 19.0393 16.3698C19.0393 16.1103 19.1428 15.8613 19.327 15.6778C19.5113 15.4943 19.7611 15.3911 20.0217 15.3911ZM14.3817 14.2131C14.6636 14.2131 14.9392 14.2964 15.1735 14.4524C15.4079 14.6084 15.5905 14.8301 15.6984 15.0895C15.8063 15.3489 15.8345 15.6344 15.7795 15.9098C15.7245 16.1852 15.5888 16.4381 15.3895 16.6367C15.1902 16.8352 14.9362 16.9704 14.6598 17.0252C14.3833 17.08 14.0968 17.0519 13.8364 16.9444C13.576 16.837 13.3534 16.655 13.1968 16.4215C13.0402 16.1881 12.9566 15.9136 12.9566 15.6328C12.9614 15.2594 13.1136 14.9029 13.3804 14.6406C13.6471 14.3783 14.0069 14.2312 14.3817 14.2312V14.2131ZM8.96617 15.3911C9.16046 15.3888 9.35109 15.4438 9.51396 15.5494C9.67684 15.6549 9.80463 15.8062 9.88119 15.9841C9.95775 16.162 9.97964 16.3586 9.94408 16.5488C9.90853 16.7391 9.81713 16.9147 9.68144 17.0532C9.54576 17.1918 9.37188 17.2871 9.18179 17.3272C8.9917 17.3673 8.79395 17.3504 8.61353 17.2785C8.43311 17.2067 8.27813 17.0831 8.16819 16.9235C8.05824 16.7639 7.99827 16.5755 7.99586 16.3819C7.99426 16.2534 8.01808 16.1258 8.06598 16.0065C8.11388 15.8871 8.18491 15.7783 8.27501 15.6863C8.36511 15.5943 8.47253 15.5209 8.59112 15.4702C8.70971 15.4196 8.83715 15.3927 8.96617 15.3911ZM6.2129 21.5231C6.2145 20.9003 6.46356 20.3035 6.90563 19.8631C7.3477 19.4227 7.94681 19.1746 8.57198 19.173H9.38462C9.73725 19.1721 10.0855 19.2506 10.4035 19.4026L10.3671 19.4509C10.2447 19.6083 10.1333 19.7738 10.0335 19.9463L9.99107 20.0248C9.90672 20.1793 9.83179 20.3387 9.76668 20.5021L9.7121 20.641C9.64112 20.8381 9.58437 21.04 9.5423 21.2452C9.5423 21.2452 9.5423 21.2875 9.5423 21.3116C9.50871 21.4913 9.48643 21.6729 9.47559 21.8553C9.47559 21.8553 9.47559 21.9158 9.47559 21.9399H6.2129V21.5231ZM10.6703 22.1272C10.6687 21.3018 10.9907 20.5084 11.5678 19.9161L11.7316 19.753C12.3148 19.2271 13.0736 18.9363 13.8602 18.9374H14.8972C15.7444 18.9422 16.5555 19.28 17.154 19.8773C17.7525 20.4746 18.09 21.2832 18.0932 22.1272V22.7917H10.6703V22.1272ZM22.7992 21.9157H19.2758C19.2758 21.9157 19.2758 21.8614 19.2758 21.8372C19.2651 21.6528 19.2428 21.4691 19.2091 21.2875V21.2512C19.1709 21.0628 19.1203 20.8771 19.0575 20.6954L19.0089 20.5625C18.9447 20.3928 18.8697 20.2274 18.7846 20.0671V20.0369C18.6905 19.867 18.5852 19.7035 18.4692 19.5476L18.4328 19.4932C18.8003 19.2785 19.2197 19.1678 19.6457 19.173H20.428C21.0532 19.1746 21.6523 19.4227 22.0944 19.8631C22.5364 20.3035 22.7855 20.9003 22.7871 21.5231L22.7992 21.9157Z" fill="#27B09A"/>
<line x1="25.6209" y1="2.76405" x2="25.6209" y2="7.24341" stroke="#27B09A" stroke-width="0.839882"/>
<line x1="23.2819" y1="4.90326" x2="27.7612" y2="4.90326" stroke="#27B09A" stroke-width="0.839882"/>
</svg>
