<svg width="45" height="45" viewBox="0 0 45 45" fill="none" xmlns="http://www.w3.org/2000/svg">
<circle cx="22.5" cy="22.5" r="22.5" fill="black" fill-opacity="0.3"/>
<path d="M37.8571 15.5429C37.7617 14.8525 37.6192 14.114 37.4286 13.3283C37.2381 12.5427 36.9556 11.876 36.5806 11.3282C36.2055 10.7807 35.7856 10.5067 35.3215 10.5067C35.268 10.2745 35.009 10.3013 34.5445 10.5871C34.0803 10.8729 33.8628 10.9683 33.893 10.8729C33.9225 10.7776 33.7615 10.8966 33.4105 11.2299C33.0593 11.5633 32.884 11.7299 32.884 11.7299L32.357 12.2566C31.8929 12.6972 31.2174 13.0333 30.3304 13.2655C29.4434 13.498 28.4704 13.6405 27.4108 13.6942C26.3513 13.7479 25.2887 13.7837 24.2233 13.8014C23.1577 13.8191 22.0892 13.8728 21.0178 13.962C19.9464 14.0514 19.0832 14.2031 18.4286 14.4174C17.1308 14.8459 15.9165 15.4145 14.7856 16.1229C13.6545 16.8313 12.6398 17.6587 11.7409 18.6052C10.8421 19.5516 10.1337 20.6499 9.61595 21.8999C9.09832 23.1496 8.83919 24.4594 8.83919 25.8284C8.83919 26.4595 8.89266 27.0784 8.99981 27.6857C9.02364 27.8047 9.11877 28.0667 9.28565 28.4714C9.45239 28.8764 9.53564 29.1025 9.53564 29.1504C9.53564 29.3762 9.35113 29.6624 8.98198 30.0071C8.61289 30.3525 8.20828 30.6859 7.7677 31.0071C7.32724 31.3284 6.92256 31.7184 6.55341 32.1767C6.18464 32.6354 6 33.0729 6 33.4894C6 33.5729 6.00876 33.6529 6.02677 33.7306C6.04478 33.8081 6.06273 33.8645 6.0805 33.8999C6.09826 33.9359 6.13116 33.9952 6.17863 34.0783C6.22648 34.1615 6.26188 34.2275 6.28584 34.2748C6.4883 34.6199 6.64899 34.8701 6.76795 35.0248C6.88691 35.1794 7.07136 35.3221 7.32149 35.4534C7.5713 35.5841 7.87515 35.6496 8.23217 35.6496C8.57762 35.6496 8.93463 35.4592 9.30378 35.0786C9.67256 34.6978 9.98523 34.2806 10.2412 33.8286C10.497 33.3763 10.7651 32.9595 11.0447 32.5786C11.3244 32.1978 11.5596 32.0073 11.75 32.0073C12.0238 32.0073 12.5951 32.2277 13.4643 32.6682C14.3333 33.1089 14.8572 33.3587 15.0358 33.4184C16.6785 33.9779 18.3808 34.2577 20.1429 34.2577C22.8098 34.2577 25.4166 33.6143 27.9644 32.3287C30.5719 31.0312 32.6995 29.4361 34.3485 27.543C35.9975 25.6498 37.0956 23.3705 37.6434 20.7034C37.8809 19.5367 37.9999 18.3879 37.9999 17.2569C38 16.8045 37.9525 16.2331 37.8571 15.5429ZM28.5175 21.5962C28.2913 21.8224 28.0231 21.9356 27.7136 21.9356C25.5469 21.9356 23.6811 22.2451 22.1155 22.864C20.5503 23.483 18.952 24.5307 17.321 26.0068C17.0832 26.2331 16.6843 26.6258 16.1247 27.1854C15.5652 27.7451 15.1246 28.1676 14.8033 28.4532C14.5532 28.6795 14.2854 28.7927 13.9996 28.7927C13.6899 28.7927 13.4221 28.6795 13.1958 28.4532C12.9696 28.2276 12.8566 27.9592 12.8566 27.6497C12.8566 27.3639 12.9696 27.0965 13.1958 26.8461C14.6482 25.2389 16.05 23.9323 17.4013 22.9265C18.7525 21.9207 20.2973 21.1231 22.0354 20.5337C23.7732 19.9443 25.6661 19.6497 27.7136 19.6497C28.0231 19.6497 28.2913 19.7628 28.5176 19.9889C28.7436 20.2154 28.8568 20.4832 28.8568 20.7927C28.8568 21.1021 28.744 21.37 28.5175 21.5962Z" fill="white"/>
</svg>
