<svg width="45" height="45" viewBox="0 0 45 45" fill="none" xmlns="http://www.w3.org/2000/svg">
<circle cx="22.5" cy="22.5" r="22.5" fill="black" fill-opacity="0.3"/>
<g clip-path="url(#clip0)">
<path d="M5.18707 16.8643L7.4406 18.6251L5.3196 22.6882C4.25913 24.5618 6.08095 26.3869 7.24171 27.0222C8.38442 27.6477 10.158 27.722 11.815 27.6995L14.7976 22.8237L17.0511 24.0426L13.1406 16.7967L5.18707 16.8643ZM5.51842 26.8105L10.3568 35.7495C11.329 36.991 13.1627 37.2844 15.0627 37.2393H20.1662V28.7744L10.4894 28.7067C8.98713 28.7969 7.02077 28.4809 5.51842 26.8105ZM35.9594 10.3371L33.3269 11.4545L30.8014 7.62965C29.6769 5.79383 27.1973 6.50236 26.079 7.2096C24.978 7.90583 24.0531 9.42101 23.2695 10.8812L26.0879 15.8537L23.9293 17.2337L32.1626 17.3264L35.9594 10.3371ZM27.0995 5.80501L16.9357 5.70312C15.3785 5.95142 14.2328 7.41295 13.3512 9.09671L10.877 13.5604L18.2805 17.6642L23.0312 9.23348C23.6805 7.87565 24.9102 6.30912 27.0995 5.80501ZM27.5417 40.2968L27.8406 37.4526L32.4103 37.0982C34.5611 37.0047 35.1435 34.4925 35.0672 33.1714C34.9921 31.871 34.1152 30.3274 33.2179 28.9342L27.5025 28.9886L27.342 26.4315L23.2694 33.5876L27.5417 40.2968ZM35.8009 34.7451L40.8175 25.905C41.3553 24.4227 40.6325 22.7121 39.5872 21.1247L36.8828 16.7966L29.7041 21.2823L34.7747 29.5247C35.6474 30.7508 36.4214 32.5858 35.8009 34.7451Z" fill="white"/>
</g>
<defs>
<clipPath id="clip0">
<rect width="36" height="36" fill="white" transform="translate(5 5)"/>
</clipPath>
</defs>
</svg>
