<svg width="31" height="30" viewBox="0 0 31 30" fill="none" xmlns="http://www.w3.org/2000/svg">
<g clip-path="url(#clip0)">
<path d="M28.8601 0H2.00319C1.08238 0 0.336426 0.74125 0.336426 1.65625V28.345C0.336426 29.2588 1.08238 30 2.00319 30H16.4632V18.3825H12.5283V13.855H16.4632V10.5163C16.4632 6.64125 18.8444 4.53125 22.3239 4.53125C23.9907 4.53125 25.4222 4.655 25.8398 4.71V8.76L23.4271 8.76125C21.5352 8.76125 21.1691 9.655 21.1691 10.965V13.8562H25.6813L25.0939 18.3837H21.1691V30H28.8627C29.7809 30 30.5269 29.2587 30.5269 28.3438V1.65625C30.5269 0.74125 29.7809 0 28.8601 0V0Z" fill="white"/>
</g>
<defs>
<clipPath id="clip0">
<rect width="30.1905" height="30" fill="white" transform="translate(0.336426)"/>
</clipPath>
</defs>
</svg>
