<svg width="31" height="30" viewBox="0 0 31 30" fill="none" xmlns="http://www.w3.org/2000/svg">
<ellipse cx="15.4317" cy="15" rx="15.0952" ry="15" fill="white"/>
<g clip-path="url(#clip0)">
<path d="M25.495 15.2295C25.495 14.5498 25.4384 13.8663 25.3177 13.1976H15.6333V17.0484H21.1791C20.949 18.2904 20.2095 19.389 19.1268 20.0872V22.5858H22.4354C24.3783 20.8441 25.495 18.272 25.495 15.2295Z" fill="#4285F4"/>
<path d="M15.6335 25.0002C18.4026 25.0002 20.7379 24.1146 22.4394 22.586L19.1308 20.0874C18.2102 20.6974 17.0219 21.0428 15.6373 21.0428C12.9587 21.0428 10.6876 19.2827 9.87273 16.9164H6.4585V19.4922C8.20145 22.869 11.7515 25.0002 15.6335 25.0002V25.0002Z" fill="#34A853"/>
<path d="M9.86933 16.9162C9.43925 15.6743 9.43925 14.3294 9.86933 13.0874V10.5117H6.45888C5.00264 13.3373 5.00264 16.6664 6.45888 19.492L9.86933 16.9162V16.9162Z" fill="#FBBC04"/>
<path d="M15.6335 8.95787C17.0973 8.93582 18.512 9.47229 19.5721 10.457L22.5035 7.602C20.6473 5.9044 18.1838 4.9711 15.6335 5.00049C11.7515 5.00049 8.20145 7.13167 6.4585 10.5122L9.86895 13.0879C10.6801 10.7179 12.955 8.95787 15.6335 8.95787V8.95787Z" fill="#EA4335"/>
</g>
<defs>
<clipPath id="clip0">
<rect width="20.127" height="20" fill="white" transform="translate(5.36816 5)"/>
</clipPath>
</defs>
</svg>
