<svg width="30" height="30" viewBox="0 0 30 30" fill="none" xmlns="http://www.w3.org/2000/svg">
<g clip-path="url(#clip0)">
<path d="M30 5.69625C28.8962 6.18625 27.71 6.51625 26.465 6.665C27.7363 5.90375 28.7125 4.6975 29.1712 3.26C27.9825 3.965 26.665 4.4775 25.2625 4.75375C24.1412 3.5575 22.54 2.81 20.77 2.81C16.7962 2.81 13.8763 6.5175 14.7738 10.3662C9.66 10.11 5.125 7.66 2.08875 3.93625C0.47625 6.7025 1.2525 10.3212 3.9925 12.1537C2.985 12.1212 2.035 11.845 1.20625 11.3837C1.13875 14.235 3.1825 16.9025 6.1425 17.4962C5.27625 17.7312 4.3275 17.7862 3.3625 17.6012C4.145 20.0462 6.4175 21.825 9.1125 21.875C6.525 23.9037 3.265 24.81 0 24.425C2.72375 26.1712 5.96 27.19 9.435 27.19C20.8625 27.19 27.3187 17.5387 26.9287 8.8825C28.1312 8.01375 29.175 6.93 30 5.69625Z" fill="white"/>
</g>
<defs>
<clipPath id="clip0">
<rect width="30" height="30" fill="white"/>
</clipPath>
</defs>
</svg>
