<svg width="35" height="35" viewBox="0 0 35 35" fill="none" xmlns="http://www.w3.org/2000/svg">
<path fill-rule="evenodd" clip-rule="evenodd" d="M17.5 35C27.165 35 35 27.165 35 17.5C35 7.83502 27.165 0 17.5 0C7.83502 0 0 7.83502 0 17.5C0 27.165 7.83502 35 17.5 35ZM12.4285 10.8889L14.35 9H20.65L22.5715 10.8889H25.9C27.055 10.8889 28 11.7389 28 12.7778V24.1111C28 25.15 27.055 26 25.9 26H9.1C7.945 26 7 25.15 7 24.1111V12.7778C7 11.7389 7.945 10.8889 9.1 10.8889H12.4285ZM17.4992 24.033C14.0216 24.033 11.1992 21.4944 11.1992 18.3664C11.1992 15.2384 14.0216 12.6997 17.4992 12.6997C20.9768 12.6997 23.7992 15.2384 23.7992 18.3664C23.7992 21.4944 20.9768 24.033 17.4992 24.033ZM21.8393 15.7799C21.8929 16.0009 21.933 16.2086 21.9598 16.4027C21.9866 16.5968 22 16.7575 22 16.8848C22 17.2029 21.9665 17.526 21.8997 17.8541C21.7456 18.6042 21.4368 19.2453 20.973 19.7778C20.5092 20.3102 19.9108 20.7588 19.1775 21.1237C18.4609 21.4853 17.7277 21.6663 16.9777 21.6663C16.4821 21.6663 16.0033 21.5876 15.5413 21.4302C15.4911 21.4134 15.3437 21.3432 15.0993 21.2192C14.8549 21.0953 14.6942 21.0333 14.6172 21.0333C14.5636 21.0333 14.4975 21.0869 14.4188 21.194C14.3402 21.3011 14.2648 21.4184 14.1928 21.5456C14.1208 21.6727 14.0329 21.79 13.9292 21.8971C13.8254 22.0042 13.725 22.0577 13.6278 22.0577C13.5274 22.0577 13.4419 22.0393 13.3717 22.0025C13.3013 21.9656 13.2494 21.9255 13.216 21.882C13.1825 21.8385 13.1373 21.7681 13.0804 21.6711C13.0737 21.6578 13.0637 21.6392 13.0502 21.6158C13.0369 21.5924 13.0276 21.5758 13.0226 21.5656C13.0176 21.5557 13.0126 21.5398 13.0075 21.518C13.0025 21.4962 13 21.4737 13 21.4502C13 21.333 13.0519 21.21 13.1556 21.081C13.2595 20.9521 13.3733 20.8424 13.4972 20.752C13.6211 20.6617 13.7349 20.5679 13.8387 20.4708C13.9425 20.3738 13.9944 20.2933 13.9944 20.2298C13.9944 20.2163 13.971 20.1528 13.9241 20.0389C13.8772 19.925 13.8504 19.8513 13.8437 19.8179C13.8136 19.6471 13.7985 19.473 13.7985 19.2955C13.7985 18.9105 13.8714 18.5421 14.017 18.1906C14.1626 17.8391 14.3618 17.5302 14.6146 17.264C14.8674 16.9978 15.1528 16.7651 15.4709 16.5659C15.789 16.3666 16.1305 16.2067 16.4955 16.0862C16.6797 16.0259 16.9224 15.9832 17.2238 15.9581C17.5251 15.933 17.8256 15.9179 18.1253 15.9129C18.425 15.9079 18.7238 15.8979 19.0218 15.8828C19.3198 15.8677 19.5935 15.8276 19.8429 15.7622C20.0924 15.6969 20.2824 15.6024 20.4129 15.4784L20.5611 15.3303L20.7092 15.1897C20.8079 15.0959 20.8532 15.0625 20.8449 15.0893C20.8364 15.1161 20.8976 15.0893 21.0282 15.0089C21.1588 14.9285 21.2316 14.921 21.2467 14.9863C21.3772 14.9863 21.4953 15.0633 21.6008 15.2173C21.7063 15.3714 21.7857 15.5589 21.8393 15.7799ZM19.1069 18.2007C19.194 18.2007 19.2694 18.1688 19.3331 18.1052C19.3968 18.0416 19.4285 17.9663 19.4285 17.8792C19.4285 17.7922 19.3966 17.7169 19.3331 17.6532C19.2694 17.5896 19.194 17.5578 19.107 17.5578C18.5311 17.5578 17.9987 17.6406 17.51 17.8064C17.0211 17.9722 16.5867 18.1965 16.2066 18.4794C15.8266 18.7622 15.4323 19.1297 15.0238 19.5817C14.9602 19.6522 14.9284 19.7274 14.9284 19.8078C14.9284 19.8948 14.9602 19.9703 15.0238 20.0338C15.0875 20.0974 15.1628 20.1292 15.2499 20.1292C15.3303 20.1292 15.4056 20.0974 15.4759 20.0338C15.5663 19.9534 15.6902 19.8346 15.8476 19.6772C16.005 19.5198 16.1171 19.4093 16.184 19.3457C16.6427 18.9305 17.0923 18.6359 17.5325 18.4618C17.9728 18.2877 18.4976 18.2007 19.1069 18.2007Z"/>
</svg>
