<svg width="35" height="35" viewBox="0 0 35 35" fill="none" xmlns="http://www.w3.org/2000/svg">
<path d="M5.25433 5.25433C6.79365 3.54493 8.68592 2.1903 10.8003 1.28415C12.9146 0.378007 15.2006 -0.0580339 17.5 0.00619218C19.7994 -0.0580339 22.0854 0.378007 24.1997 1.28415C26.3141 2.1903 28.2063 3.54493 29.7457 5.25433C31.4551 6.79365 32.8097 8.68592 33.7158 10.8003C34.622 12.9146 35.058 15.2006 34.9938 17.5C35.058 19.7994 34.622 22.0854 33.7158 24.1997C32.8097 26.3141 31.4551 28.2063 29.7457 29.7457C28.2063 31.4551 26.3141 32.8097 24.1997 33.7158C22.0854 34.622 19.7994 35.058 17.5 34.9938C15.2006 35.058 12.9146 34.622 10.8003 33.7158C8.68592 32.8097 6.79365 31.4551 5.25433 29.7457C1.95505 26.518 0.0681186 22.1151 0.00619218 17.5C-0.0580339 15.2006 0.378007 12.9146 1.28415 10.8003C2.1903 8.68592 3.54493 6.79365 5.25433 5.25433ZM19.8332 31.495C21.5636 31.1865 23.1202 30.2526 24.2067 28.871C25.4012 27.0391 26.1038 24.9304 26.2469 22.7481C26.2524 22.0967 26.126 21.4509 25.8753 20.8496C25.6247 20.2484 25.2549 19.704 24.7884 19.2494C24.3145 18.7086 23.7323 18.2734 23.0794 17.972C22.4266 17.6707 21.7177 17.5099 20.9988 17.5H18.0839C17.1838 17.4456 16.298 17.2485 15.4598 16.9161C15.1749 16.6597 14.9492 16.3445 14.7981 15.9922C14.6471 15.6399 14.5744 15.2591 14.5851 14.8759C14.5896 14.6505 14.6443 14.4288 14.7453 14.2272C14.8463 14.0255 14.991 13.849 15.1689 13.7104C15.4899 13.4031 15.8961 13.1996 16.3345 13.1265C16.6271 13.1555 16.9097 13.249 17.1619 13.4002C17.4141 13.5515 17.6296 13.7567 17.793 14.0012C18.3769 14.2921 18.6677 14.5851 18.9585 14.5851C19.3695 14.6281 19.7824 14.5243 20.1241 14.2921C20.3555 13.9501 20.4586 13.5372 20.4149 13.1265C20.2972 12.0105 19.779 10.9749 18.9564 10.2116C19.8803 8.50924 20.3806 6.60933 20.4149 4.67267C20.4047 4.52119 20.3399 4.37855 20.2325 4.2712C20.1252 4.16384 19.9825 4.09904 19.831 4.08881C19.0836 3.79102 18.2996 3.59466 17.5 3.50495C14.8058 3.56738 12.1817 4.375 9.91862 5.83819C9.06963 6.54937 8.39256 7.44344 7.93813 8.45342C7.48369 9.4634 7.26367 10.5631 7.29455 11.6702C7.2784 12.7047 7.47747 13.7313 7.87913 14.6849C8.28079 15.6384 8.87627 16.498 9.62779 17.2092C11.099 18.6795 13.0869 19.5161 15.1668 19.5402V20.7057C15.1384 21.2475 15.2281 21.789 15.4298 22.2927C15.6314 22.7964 15.9401 23.2503 16.3345 23.6228C16.9522 24.5212 17.8917 25.1475 18.9585 25.3722V30.6204C18.9585 30.9112 18.9585 30.9112 19.2494 31.2042C19.5402 31.4972 19.5402 31.495 19.8332 31.495Z" />
</svg>
