<svg width="35" height="35" viewBox="0 0 35 35" fill="none" xmlns="http://www.w3.org/2000/svg">
<path d="M5.25433 5.25433C6.79365 3.54493 8.68592 2.1903 10.8003 1.28415C12.9146 0.378007 15.2006 -0.0580339 17.5 0.00619218C19.7994 -0.0580339 22.0854 0.378007 24.1997 1.28415C26.3141 2.1903 28.2063 3.54493 29.7457 5.25433C31.4551 6.79365 32.8097 8.68592 33.7158 10.8003C34.622 12.9146 35.058 15.2006 34.9938 17.5C35.058 19.7994 34.622 22.0854 33.7158 24.1997C32.8097 26.3141 31.4551 28.2063 29.7457 29.7457C28.2063 31.4551 26.3141 32.8097 24.1997 33.7158C22.0854 34.622 19.7994 35.058 17.5 34.9938C15.2006 35.058 12.9146 34.622 10.8003 33.7158C8.68592 32.8097 6.79365 31.4551 5.25433 29.7457C1.95505 26.518 0.0681186 22.1151 0.00619218 17.5C-0.0580339 15.2006 0.378007 12.9146 1.28415 10.8003C2.1903 8.68592 3.54493 6.79365 5.25433 5.25433ZM19.8332 31.495C21.5636 31.1865 23.1202 30.2526 24.2067 28.871C25.4012 27.0391 26.1038 24.9304 26.2469 22.7481C26.2524 22.0967 26.126 21.4509 25.8753 20.8496C25.6247 20.2484 25.2549 19.704 24.7884 19.2494C24.3145 18.7086 23.7323 18.2734 23.0794 17.972C22.4266 17.6707 21.7177 17.5099 20.9988 17.5H18.0839C17.1838 17.4456 16.298 17.2485 15.4598 16.9161C15.1749 16.6597 14.9492 16.3445 14.7981 15.9922C14.6471 15.6399 14.5744 15.2591 14.5851 14.8759C14.5896 14.6505 14.6443 14.4288 14.7453 14.2272C14.8463 14.0255 14.991 13.849 15.1689 13.7104C15.4899 13.4031 15.8961 13.1996 16.3345 13.1265C16.6271 13.1555 16.9097 13.249 17.1619 13.4002C17.4141 13.5515 17.6296 13.7567 17.793 14.0012C18.3769 14.2921 18.6677 14.5851 18.9585 14.5851C19.3695 14.6281 19.7824 14.5243 20.1241 14.2921C20.3555 13.9501 20.4586 13.5372 20.4149 13.1265C20.2972 12.0105 19.779 10.9749 18.9564 10.2116C19.8803 8.50924 20.3806 6.60933 20.4149 4.67267C20.4047 4.52119 20.3399 4.37855 20.2325 4.2712C20.1252 4.16384 19.9825 4.09904 19.831 4.08881C19.0836 3.79102 18.2996 3.59466 17.5 3.50495C14.8058 3.56738 12.1817 4.375 9.91862 5.83819C9.06963 6.54937 8.39256 7.44344 7.93813 8.45342C7.48369 9.4634 7.26367 10.5631 7.29455 11.6702C7.2784 12.7047 7.47747 13.7313 7.87913 14.6849C8.28079 15.6384 8.87627 16.498 9.62779 17.2092C11.099 18.6795 13.0869 19.5161 15.1668 19.5402V20.7057C15.1384 21.2475 15.2281 21.789 15.4298 22.2927C15.6314 22.7964 15.9401 23.2503 16.3345 23.6228C16.9522 24.5212 17.8917 25.1475 18.9585 25.3722V30.6204C18.9585 30.9112 18.9585 30.9112 19.2494 31.2042C19.5402 31.4972 19.5402 31.495 19.8332 31.495Z" fill="white"/>
<path d="M5.58892 5.62589L5.60837 5.60837L5.62589 5.58892C7.11674 3.93333 8.94944 2.62135 10.9972 1.74373C13.045 0.866107 15.259 0.443793 17.486 0.505997L17.5 0.506387L17.514 0.505997C19.741 0.443793 21.955 0.866107 24.0028 1.74373C26.0506 2.62135 27.8833 3.93333 29.3741 5.58892L29.3916 5.60837L29.4111 5.62589C31.0667 7.11674 32.3787 8.94944 33.2563 10.9972C34.1339 13.045 34.5562 15.259 34.494 17.486L34.4936 17.5L34.494 17.514C34.5562 19.741 34.1339 21.955 33.2563 24.0028C32.3787 26.0506 31.0667 27.8833 29.4111 29.3741L29.3916 29.3916L29.3741 29.4111C27.8833 31.0667 26.0506 32.3787 24.0028 33.2563C21.955 34.1339 19.741 34.5562 17.514 34.494L17.5 34.4936L17.486 34.494C15.259 34.5562 13.045 34.1339 10.9972 33.2563C8.94944 32.3787 7.11674 31.0667 5.62589 29.4111L5.6153 29.3993L5.60399 29.3883C2.39919 26.253 0.5663 21.9763 0.506147 17.4933L0.5062 17.4933L0.505997 17.486C0.443793 15.259 0.866107 13.045 1.74373 10.9972C2.62135 8.94944 3.93333 7.11674 5.58892 5.62589ZM19.8332 31.995H19.8775L19.921 31.9873C21.7721 31.6572 23.4373 30.6581 24.5997 29.1801L24.6134 29.1626L24.6255 29.1441C25.8669 27.2402 26.5971 25.0488 26.7458 22.7809L26.7468 22.7666L26.7469 22.7524C26.7529 22.0335 26.6135 21.3208 26.3368 20.6572C26.0628 19.9998 25.6596 19.404 25.1514 18.9051C24.6337 18.3185 23.9995 17.8461 23.289 17.5181C22.5726 17.1874 21.7946 17.0109 21.0056 17V17H20.9988H18.0992C17.2881 16.9495 16.4896 16.7758 15.7311 16.4853C15.5297 16.2887 15.3688 16.0543 15.2577 15.7952C15.1352 15.5095 15.0762 15.2006 15.0849 14.8899L15.085 14.8858C15.088 14.7347 15.1247 14.5862 15.1923 14.4511C15.26 14.316 15.357 14.1977 15.4762 14.1049L15.4963 14.0892L15.5147 14.0716C15.747 13.8492 16.0368 13.6971 16.3507 13.6321C16.5464 13.6602 16.7348 13.7271 16.9047 13.829C17.0936 13.9423 17.255 14.096 17.3773 14.279L17.4511 14.3895L17.5701 14.4488C17.7724 14.5496 17.9281 14.6459 18.0797 14.7398C18.129 14.7703 18.1779 14.8005 18.2278 14.8306C18.3942 14.9308 18.6399 15.0752 18.9289 15.0846C19.4499 15.1339 19.972 15 20.4051 14.7056L20.4844 14.6517L20.5381 14.5723C20.8357 14.1327 20.9682 13.602 20.9121 13.0741C20.7953 11.9663 20.3223 10.9301 19.5696 10.1183C20.4208 8.43185 20.8813 6.57353 20.9148 4.68152L20.9152 4.66022L20.9138 4.63896C20.8954 4.3668 20.779 4.11053 20.5861 3.91765C20.4142 3.74573 20.1919 3.63455 19.9529 3.59939C19.183 3.29903 18.3772 3.10023 17.5557 3.00807L17.5222 3.00431L17.4884 3.00509C14.7019 3.06965 11.9878 3.90496 9.64714 5.41831L9.62121 5.43507L9.59755 5.4549C8.69073 6.21452 7.96754 7.16949 7.48215 8.24826C6.99826 9.32372 6.76321 10.4944 6.79445 11.6733C6.77877 12.7734 6.99119 13.8649 7.41834 14.879C7.84602 15.8942 8.47964 16.8097 9.27914 17.5676C10.7252 19.0105 12.6398 19.8779 14.6668 20.02V20.6931C14.6368 21.3027 14.7387 21.9118 14.9656 22.4785C15.1875 23.033 15.524 23.5342 15.9527 23.9495C16.5644 24.8184 17.448 25.454 18.4585 25.7598V30.6204C18.4585 30.6294 18.4585 30.6391 18.4584 30.6495C18.4575 30.7627 18.456 30.951 18.5474 31.1344C18.5947 31.2294 18.6559 31.3047 18.7085 31.3635C18.7582 31.4191 18.8208 31.4821 18.8869 31.5488L18.8945 31.5564L18.8979 31.5599C18.9659 31.6283 19.0302 31.6931 19.0873 31.7446C19.1465 31.798 19.2225 31.8601 19.3189 31.9077C19.5015 31.998 19.6908 31.9963 19.8027 31.9952C19.8137 31.9951 19.8239 31.995 19.8332 31.995Z" stroke="black" stroke-opacity="0.41"/>
</svg>
