<svg width="35" height="35" viewBox="0 0 35 35" fill="none" xmlns="http://www.w3.org/2000/svg">
<path fill-rule="evenodd" clip-rule="evenodd" d="M17.5 35C27.165 35 35 27.165 35 17.5C35 7.83502 27.165 0 17.5 0C7.83502 0 0 7.83502 0 17.5C0 27.165 7.83502 35 17.5 35ZM23.0006 18.0911V9.90911C23.0006 9.4091 22.5506 9 22.0006 9H9.00004C8.45002 9 8 9.4091 8 9.90911V22.6367L12.0002 19.0002H22.0006C22.5506 19.0002 23.0006 18.5911 23.0006 18.0911ZM27.0005 12.6364H25.0004V20.8184H11.9999V22.6367C11.9999 23.1367 12.4499 23.5458 12.9999 23.5458H24.0003L28.0005 27.1822V13.5456C28.0005 13.0455 27.5505 12.6364 27.0005 12.6364Z"/>
</svg>
