<svg width="35" height="35" viewBox="0 0 35 35" fill="none" xmlns="http://www.w3.org/2000/svg">
<path fill-rule="evenodd" clip-rule="evenodd" d="M17.5 35C27.165 35 35 27.165 35 17.5C35 7.83502 27.165 0 17.5 0C7.83502 0 0 7.83502 0 17.5C0 27.165 7.83502 35 17.5 35ZM10 23.125V25H25V23.125C25 21.0625 21.625 19.375 17.5 19.375C13.375 19.375 10 21.0625 10 23.125ZM14.382 11.6666C13.9699 12.2833 13.75 13.0083 13.75 13.75C13.75 14.7446 14.1451 15.6984 14.8483 16.4016C15.5516 17.1049 16.5054 17.5 17.5 17.5C18.2417 17.5 18.9667 17.2801 19.5834 16.868C20.2001 16.4559 20.6807 15.8703 20.9645 15.1851C21.2484 14.4998 21.3226 13.7458 21.1779 13.0184C21.0333 12.291 20.6761 11.6228 20.1517 11.0983C19.6272 10.5739 18.959 10.2168 18.2316 10.0721C17.5042 9.92737 16.7502 10.0016 16.0649 10.2854C15.3797 10.5693 14.794 11.0499 14.382 11.6666Z" />
</svg>
