<svg width="35" height="35" viewBox="0 0 35 35" fill="none" xmlns="http://www.w3.org/2000/svg">
<path fill-rule="evenodd" clip-rule="evenodd" d="M17.5 35C27.165 35 35 27.165 35 17.5C35 7.83502 27.165 0 17.5 0C7.83502 0 0 7.83502 0 17.5C0 27.165 7.83502 35 17.5 35ZM20.2474 25.4142C20.6459 25.7893 21.1864 26 21.75 26H23.875C24.4386 26 24.9791 25.7893 25.3776 25.4142C25.7761 25.0391 26 24.5304 26 24V22C26 21.4696 25.7761 20.9609 25.3776 20.5858C24.9791 20.2107 24.4386 20 23.875 20H21.75C21.1864 20 20.6459 20.2107 20.2474 20.5858C19.8489 20.9609 19.625 21.4696 19.625 22V24C19.625 24.5304 19.8489 25.0391 20.2474 25.4142ZM9.6224 25.4142C10.0209 25.7893 10.5614 26 11.125 26H13.25C13.8136 26 14.3541 25.7893 14.7526 25.4142C15.1511 25.0391 15.375 24.5304 15.375 24V22C15.375 21.4696 15.1511 20.9609 14.7526 20.5858C14.3541 20.2107 13.8136 20 13.25 20H11.125C10.5614 20 10.0209 20.2107 9.6224 20.5858C9.22388 20.9609 9 21.4696 9 22V24C9 24.5304 9.22388 25.0391 9.6224 25.4142ZM20.2474 15.4142C20.6459 15.7893 21.1864 16 21.75 16H23.875C24.4386 16 24.9791 15.7893 25.3776 15.4142C25.7761 15.0391 26 14.5304 26 14V12C26 11.4696 25.7761 10.9609 25.3776 10.5858C24.9791 10.2107 24.4386 10 23.875 10H21.75C21.1864 10 20.6459 10.2107 20.2474 10.5858C19.8489 10.9609 19.625 11.4696 19.625 12V14C19.625 14.5304 19.8489 15.0391 20.2474 15.4142ZM9.6224 15.4142C10.0209 15.7893 10.5614 16 11.125 16H13.25C13.8136 16 14.3541 15.7893 14.7526 15.4142C15.1511 15.0391 15.375 14.5304 15.375 14V12C15.375 11.4696 15.1511 10.9609 14.7526 10.5858C14.3541 10.2107 13.8136 10 13.25 10H11.125C10.5614 10 10.0209 10.2107 9.6224 10.5858C9.22388 10.9609 9 11.4696 9 12V14C9 14.5304 9.22388 15.0391 9.6224 15.4142Z"/>
</svg>
