<svg width="50" height="50" viewBox="0 0 50 50" fill="none" xmlns="http://www.w3.org/2000/svg">
<g filter="url(#filter0_d)">
<path d="M25 44C36.0457 44 45 35.0457 45 24C45 12.9543 36.0457 4 25 4C13.9543 4 5 12.9543 5 24C5 35.0457 13.9543 44 25 44Z" fill="white"/>
<path d="M44.5 24C44.5 34.7696 35.7696 43.5 25 43.5C14.2304 43.5 5.5 34.7696 5.5 24C5.5 13.2304 14.2304 4.5 25 4.5C35.7696 4.5 44.5 13.2304 44.5 24Z" stroke="black" stroke-opacity="0.4"/>
</g>
<path d="M24 32V25H17V23H24V16H26V23H33V25H26V32H24Z" fill="black" fill-opacity="0.4"/>
<path d="M25.5 25V31.5H24.5V25V24.5H24H17.5V23.5H24H24.5V23V16.5H25.5V23V23.5H26H32.5V24.5H26H25.5V25Z" stroke="black" stroke-opacity="0.4"/>
<defs>
<filter id="filter0_d" x="0" y="0" width="50" height="50" filterUnits="userSpaceOnUse" color-interpolation-filters="sRGB">
<feFlood flood-opacity="0" result="BackgroundImageFix"/>
<feColorMatrix in="SourceAlpha" type="matrix" values="0 0 0 0 0 0 0 0 0 0 0 0 0 0 0 0 0 0 127 0"/>
<feOffset dy="1"/>
<feGaussianBlur stdDeviation="2.5"/>
<feColorMatrix type="matrix" values="0 0 0 0 0 0 0 0 0 0 0 0 0 0 0 0 0 0 0.1 0"/>
<feBlend mode="normal" in2="BackgroundImageFix" result="effect1_dropShadow"/>
<feBlend mode="normal" in="SourceGraphic" in2="effect1_dropShadow" result="shape"/>
</filter>
</defs>
</svg>
