<svg width="35" height="35" viewBox="0 0 35 35" fill="none" xmlns="http://www.w3.org/2000/svg">
<path fill-rule="evenodd" clip-rule="evenodd" d="M17.5 35C27.165 35 35 27.165 35 17.5C35 7.83502 27.165 0 17.5 0C7.83502 0 0 7.83502 0 17.5C0 27.165 7.83502 35 17.5 35ZM8 25.9232V15.0422L17.5 6.43604L27 15.0422V25.9232H19.6111V19.2295H15.3889V25.9232H8Z" fill="white"/>
<path d="M7.66431 14.6716L7.5 14.8205V15.0422V25.9232V26.4232H8H15.3889H15.8889V25.9232V19.7295H19.1111V25.9232V26.4232H19.6111H27H27.5V25.9232V15.0422V14.8205L27.3357 14.6716L17.8357 6.06548L17.5 5.76137L17.1643 6.06548L7.66431 14.6716ZM34.5 17.5C34.5 26.8888 26.8888 34.5 17.5 34.5C8.11116 34.5 0.5 26.8888 0.5 17.5C0.5 8.11116 8.11116 0.5 17.5 0.5C26.8888 0.5 34.5 8.11116 34.5 17.5Z" stroke="black" stroke-opacity="0.41"/>
</svg>
