<svg width="45" height="45" viewBox="0 0 45 45" fill="none" xmlns="http://www.w3.org/2000/svg">
<g filter="url(#filter0_d)">
<path d="M10.2543 9.25433C11.7936 7.54493 13.6859 6.1903 15.8003 5.28415C17.9146 4.37801 20.2006 3.94197 22.5 4.00619C24.7994 3.94197 27.0854 4.37801 29.1997 5.28415C31.3141 6.1903 33.2064 7.54493 34.7457 9.25433C36.4551 10.7936 37.8097 12.6859 38.7158 14.8003C39.622 16.9146 40.058 19.2006 39.9938 21.5C40.058 23.7994 39.622 26.0854 38.7158 28.1997C37.8097 30.3141 36.4551 32.2064 34.7457 33.7457C33.2064 35.4551 31.3141 36.8097 29.1997 37.7158C27.0854 38.622 24.7994 39.058 22.5 38.9938C20.2006 39.058 17.9146 38.622 15.8003 37.7158C13.6859 36.8097 11.7936 35.4551 10.2543 33.7457C6.95505 30.518 5.06812 26.1151 5.00619 21.5C4.94197 19.2006 5.37801 16.9146 6.28415 14.8003C7.1903 12.6859 8.54493 10.7936 10.2543 9.25433ZM24.8332 35.495C26.5636 35.1865 28.1202 34.2526 29.2067 32.871C30.4012 31.0391 31.1038 28.9304 31.2469 26.7481C31.2524 26.0967 31.126 25.4509 30.8753 24.8496C30.6247 24.2484 30.2549 23.704 29.7884 23.2494C29.3145 22.7086 28.7323 22.2734 28.0794 21.972C27.4266 21.6707 26.7177 21.5099 25.9988 21.5H23.0839C22.1838 21.4456 21.298 21.2485 20.4598 20.9161C20.1749 20.6597 19.9492 20.3445 19.7981 19.9922C19.6471 19.6399 19.5744 19.2591 19.5851 18.8759C19.5896 18.6505 19.6443 18.4288 19.7453 18.2272C19.8463 18.0255 19.991 17.849 20.1689 17.7104C20.4899 17.4031 20.8961 17.1996 21.3345 17.1265C21.6271 17.1555 21.9097 17.249 22.1619 17.4002C22.4141 17.5515 22.6296 17.7567 22.793 18.0012C23.3769 18.2921 23.6677 18.5851 23.9585 18.5851C24.3695 18.6281 24.7824 18.5243 25.1241 18.2921C25.3555 17.9501 25.4586 17.5372 25.4149 17.1265C25.2972 16.0105 24.779 14.9749 23.9564 14.2116C24.8803 12.5092 25.3806 10.6093 25.4149 8.67267C25.4047 8.52119 25.3399 8.37855 25.2325 8.2712C25.1252 8.16384 24.9825 8.09904 24.831 8.08881C24.0836 7.79102 23.2996 7.59466 22.5 7.50495C19.8058 7.56738 17.1817 8.375 14.9186 9.83819C14.0696 10.5494 13.3926 11.4434 12.9381 12.4534C12.4837 13.4634 12.2637 14.5631 12.2945 15.6702C12.2784 16.7047 12.4775 17.7313 12.8791 18.6849C13.2808 19.6384 13.8763 20.498 14.6278 21.2092C16.099 22.6795 18.0869 23.5161 20.1668 23.5402V24.7057C20.1384 25.2475 20.2281 25.789 20.4298 26.2927C20.6314 26.7964 20.9401 27.2503 21.3345 27.6228C21.9522 28.5212 22.8917 29.1475 23.9585 29.3722V34.6204C23.9585 34.9112 23.9585 34.9112 24.2494 35.2042C24.5402 35.4972 24.5402 35.495 24.8332 35.495Z" fill="white"/>
<path d="M10.5889 9.62589L10.6084 9.60837L10.6259 9.58892C12.1167 7.93333 13.9494 6.62135 15.9972 5.74373C18.045 4.86611 20.259 4.44379 22.486 4.506L22.5 4.50639L22.514 4.506C24.741 4.44379 26.955 4.86611 29.0028 5.74373C31.0506 6.62135 32.8833 7.93333 34.3741 9.58892L34.3916 9.60837L34.4111 9.62589C36.0667 11.1167 37.3787 12.9494 38.2563 14.9972C39.1339 17.045 39.5562 19.259 39.494 21.486L39.4936 21.5L39.494 21.514C39.5562 23.741 39.1339 25.955 38.2563 28.0028C37.3787 30.0506 36.0667 31.8833 34.4111 33.3741L34.3916 33.3916L34.3741 33.4111C32.8833 35.0667 31.0506 36.3787 29.0028 37.2563C26.955 38.1339 24.741 38.5562 22.514 38.494L22.5 38.4936L22.486 38.494C20.259 38.5562 18.045 38.1339 15.9972 37.2563C13.9494 36.3787 12.1167 35.0667 10.6259 33.4111L10.6153 33.3993L10.604 33.3883C7.39919 30.253 5.5663 25.9763 5.50615 21.4933L5.5062 21.4933L5.506 21.486C5.44379 19.259 5.86611 17.045 6.74373 14.9972C7.62135 12.9494 8.93333 11.1167 10.5889 9.62589ZM24.8332 35.995H24.8775L24.921 35.9873C26.7721 35.6572 28.4373 34.6581 29.5997 33.1801L29.6134 33.1626L29.6255 33.1441C30.8669 31.2402 31.5971 29.0488 31.7458 26.7809L31.7468 26.7666L31.7469 26.7524C31.7529 26.0335 31.6135 25.3208 31.3368 24.6572C31.0628 23.9998 30.6596 23.404 30.1514 22.9051C29.6337 22.3185 28.9995 21.8461 28.289 21.5181C27.5726 21.1874 26.7946 21.0109 26.0056 21V21H25.9988H23.0992C22.2881 20.9495 21.4896 20.7758 20.7311 20.4853C20.5297 20.2887 20.3688 20.0543 20.2577 19.7952C20.1352 19.5095 20.0762 19.2006 20.0849 18.8899L20.085 18.8858C20.088 18.7347 20.1247 18.5862 20.1923 18.4511C20.26 18.316 20.357 18.1977 20.4762 18.1049L20.4963 18.0892L20.5147 18.0716C20.747 17.8492 21.0368 17.6971 21.3507 17.6321C21.5464 17.6602 21.7348 17.7271 21.9047 17.829C22.0936 17.9423 22.255 18.096 22.3773 18.279L22.4511 18.3895L22.5701 18.4488C22.7724 18.5496 22.9281 18.6459 23.0797 18.7398C23.129 18.7703 23.1779 18.8005 23.2278 18.8306C23.3942 18.9308 23.6399 19.0752 23.9289 19.0846C24.4499 19.1339 24.972 19 25.4051 18.7056L25.4844 18.6517L25.5381 18.5723C25.8358 18.1326 25.9682 17.6017 25.9121 17.0737C25.7952 15.966 25.3222 14.93 24.5696 14.1183C25.4208 12.4319 25.8813 10.5735 25.9148 8.68152L25.9152 8.66022L25.9138 8.63896C25.8954 8.3668 25.779 8.11053 25.5861 7.91765C25.4142 7.74573 25.1919 7.63455 24.9529 7.59939C24.183 7.29903 23.3772 7.10023 22.5557 7.00807L22.5222 7.00431L22.4884 7.00509C19.7019 7.06965 16.9878 7.90496 14.6471 9.41831L14.6212 9.43507L14.5975 9.4549C13.6907 10.2145 12.9675 11.1695 12.4822 12.2483C11.9983 13.3237 11.7632 14.4944 11.7944 15.6733C11.7788 16.7734 11.9912 17.8649 12.4183 18.879C12.846 19.8942 13.4796 20.8097 14.2792 21.5676C15.7252 23.0105 17.6398 23.8779 19.6668 24.02V24.6931C19.6368 25.3027 19.7387 25.9118 19.9656 26.4785C20.1875 27.033 20.524 27.5342 20.9527 27.9495C21.5644 28.8184 22.448 29.454 23.4585 29.7598V34.6204C23.4585 34.6294 23.4585 34.6391 23.4584 34.6495C23.4575 34.7627 23.456 34.951 23.5474 35.1344C23.5947 35.2294 23.6559 35.3047 23.7085 35.3635C23.7582 35.4191 23.8207 35.4821 23.8869 35.5487L23.8945 35.5564L23.8979 35.5599C23.9659 35.6283 24.0302 35.6931 24.0873 35.7446C24.1465 35.798 24.2225 35.8601 24.3189 35.9077C24.5015 35.998 24.6908 35.9963 24.8027 35.9952C24.8137 35.9951 24.8239 35.995 24.8332 35.995Z" stroke="black" stroke-opacity="0.41"/>
</g>
<defs>
<filter id="filter0_d" x="0" y="0" width="45" height="45" filterUnits="userSpaceOnUse" color-interpolation-filters="sRGB">
<feFlood flood-opacity="0" result="BackgroundImageFix"/>
<feColorMatrix in="SourceAlpha" type="matrix" values="0 0 0 0 0 0 0 0 0 0 0 0 0 0 0 0 0 0 127 0"/>
<feOffset dy="1"/>
<feGaussianBlur stdDeviation="2.5"/>
<feColorMatrix type="matrix" values="0 0 0 0 0 0 0 0 0 0 0 0 0 0 0 0 0 0 0.1 0"/>
<feBlend mode="normal" in2="BackgroundImageFix" result="effect1_dropShadow"/>
<feBlend mode="normal" in="SourceGraphic" in2="effect1_dropShadow" result="shape"/>
</filter>
</defs>
</svg>
