<svg width="45" height="45" viewBox="0 0 45 45" fill="none" xmlns="http://www.w3.org/2000/svg">
<g filter="url(#filter0_d)">
<path d="M22.5 39C32.165 39 40 31.165 40 21.5C40 11.835 32.165 4 22.5 4C12.835 4 5 11.835 5 21.5C5 31.165 12.835 39 22.5 39Z" fill="white"/>
<path d="M39.5 21.5C39.5 30.8888 31.8888 38.5 22.5 38.5C13.1112 38.5 5.5 30.8888 5.5 21.5C5.5 12.1112 13.1112 4.5 22.5 4.5C31.8888 4.5 39.5 12.1112 39.5 21.5Z" stroke="black" stroke-opacity="0.41"/>
</g>
<path d="M14.5 29.5V14.5H30.5V29.5H14.5Z" stroke="white" stroke-opacity="0.41"/>
<path d="M26.75 30C26.1864 30 25.6459 29.7893 25.2474 29.4142C24.8489 29.0391 24.625 28.5304 24.625 28V26C24.625 25.4696 24.8489 24.9609 25.2474 24.5858C25.6459 24.2107 26.1864 24 26.75 24H28.875C29.4386 24 29.9791 24.2107 30.3776 24.5858C30.7761 24.9609 31 25.4696 31 26V28C31 28.5304 30.7761 29.0391 30.3776 29.4142C29.9791 29.7893 29.4386 30 28.875 30H26.75ZM16.125 30C15.5614 30 15.0209 29.7893 14.6224 29.4142C14.2239 29.0391 14 28.5304 14 28V26C14 25.4696 14.2239 24.9609 14.6224 24.5858C15.0209 24.2107 15.5614 24 16.125 24H18.25C18.8136 24 19.3541 24.2107 19.7526 24.5858C20.1511 24.9609 20.375 25.4696 20.375 26V28C20.375 28.5304 20.1511 29.0391 19.7526 29.4142C19.3541 29.7893 18.8136 30 18.25 30H16.125ZM26.75 20C26.1864 20 25.6459 19.7893 25.2474 19.4142C24.8489 19.0391 24.625 18.5304 24.625 18V16C24.625 15.4696 24.8489 14.9609 25.2474 14.5858C25.6459 14.2107 26.1864 14 26.75 14H28.875C29.4386 14 29.9791 14.2107 30.3776 14.5858C30.7761 14.9609 31 15.4696 31 16V18C31 18.5304 30.7761 19.0391 30.3776 19.4142C29.9791 19.7893 29.4386 20 28.875 20H26.75ZM16.125 20C15.5614 20 15.0209 19.7893 14.6224 19.4142C14.2239 19.0391 14 18.5304 14 18V16C14 15.4696 14.2239 14.9609 14.6224 14.5858C15.0209 14.2107 15.5614 14 16.125 14H18.25C18.8136 14 19.3541 14.2107 19.7526 14.5858C20.1511 14.9609 20.375 15.4696 20.375 16V18C20.375 18.5304 20.1511 19.0391 19.7526 19.4142C19.3541 19.7893 18.8136 20 18.25 20H16.125Z" fill="white"/>
<path d="M26.75 29.5C26.3096 29.5 25.8928 29.335 25.5901 29.0501C25.2884 28.7661 25.125 28.3877 25.125 28V26C25.125 25.6123 25.2884 25.2339 25.5901 24.9499C25.8928 24.665 26.3096 24.5 26.75 24.5H28.875C29.3154 24.5 29.7322 24.665 30.0349 24.9499C30.3366 25.2339 30.5 25.6123 30.5 26V28C30.5 28.3877 30.3366 28.7661 30.0349 29.0501C29.7322 29.335 29.3154 29.5 28.875 29.5H26.75ZM16.125 29.5C15.6846 29.5 15.2678 29.335 14.9651 29.0501C14.6634 28.7661 14.5 28.3877 14.5 28V26C14.5 25.6123 14.6634 25.2339 14.9651 24.9499C15.2678 24.665 15.6846 24.5 16.125 24.5H18.25C18.6904 24.5 19.1072 24.665 19.4099 24.9499C19.7116 25.2339 19.875 25.6123 19.875 26V28C19.875 28.3877 19.7116 28.7661 19.4099 29.0501C19.1072 29.335 18.6904 29.5 18.25 29.5H16.125ZM26.75 19.5C26.3096 19.5 25.8928 19.3351 25.5901 19.0501C25.2884 18.7661 25.125 18.3877 25.125 18V16C25.125 15.6123 25.2884 15.2339 25.5901 14.9499C25.8928 14.665 26.3096 14.5 26.75 14.5H28.875C29.3154 14.5 29.7322 14.665 30.0349 14.9499C30.3366 15.2339 30.5 15.6123 30.5 16V18C30.5 18.3877 30.3366 18.7661 30.0349 19.0501C29.7322 19.3351 29.3154 19.5 28.875 19.5H26.75ZM16.125 19.5C15.6846 19.5 15.2678 19.3351 14.9651 19.0501C14.6634 18.7661 14.5 18.3877 14.5 18V16C14.5 15.6123 14.6634 15.2339 14.9651 14.9499C15.2678 14.665 15.6846 14.5 16.125 14.5H18.25C18.6904 14.5 19.1072 14.665 19.4099 14.9499C19.7116 15.2339 19.875 15.6123 19.875 16V18C19.875 18.3877 19.7116 18.7661 19.4099 19.0501C19.1072 19.335 18.6904 19.5 18.25 19.5H16.125Z" stroke="black" stroke-opacity="0.41"/>
<defs>
<filter id="filter0_d" x="0" y="0" width="45" height="45" filterUnits="userSpaceOnUse" color-interpolation-filters="sRGB">
<feFlood flood-opacity="0" result="BackgroundImageFix"/>
<feColorMatrix in="SourceAlpha" type="matrix" values="0 0 0 0 0 0 0 0 0 0 0 0 0 0 0 0 0 0 127 0"/>
<feOffset dy="1"/>
<feGaussianBlur stdDeviation="2.5"/>
<feColorMatrix type="matrix" values="0 0 0 0 0 0 0 0 0 0 0 0 0 0 0 0 0 0 0.1 0"/>
<feBlend mode="normal" in2="BackgroundImageFix" result="effect1_dropShadow"/>
<feBlend mode="normal" in="SourceGraphic" in2="effect1_dropShadow" result="shape"/>
</filter>
</defs>
</svg>
