<svg width="40" height="40" viewBox="0 0 40 40" fill="none" xmlns="http://www.w3.org/2000/svg">
<path fill-rule="evenodd" clip-rule="evenodd" d="M40 20C40 31.0457 31.0457 40 20 40C8.9543 40 0 31.0457 0 20C0 8.9543 8.9543 0 20 0C31.0457 0 40 8.9543 40 20ZM19 21V28H21V21H28V19H21V12H19V19H12V21H19Z" fill="white"/>
<path d="M18.5 28V28.5H19H21H21.5V28V21.5H28H28.5V21V19V18.5H28H21.5V12V11.5H21H19H18.5V12V18.5H12H11.5V19V21V21.5H12H18.5V28ZM39.5 20C39.5 30.7696 30.7696 39.5 20 39.5C9.23045 39.5 0.5 30.7696 0.5 20C0.5 9.23045 9.23045 0.5 20 0.5C30.7696 0.5 39.5 9.23045 39.5 20Z" stroke="black" stroke-opacity="0.4"/>
</svg>
