<svg width="35" height="35" viewBox="0 0 35 35" fill="none" xmlns="http://www.w3.org/2000/svg">
<path fill-rule="evenodd" clip-rule="evenodd" d="M35 17.5C35 27.165 27.165 35 17.5 35C7.83502 35 0 27.165 0 17.5C0 7.83502 7.83502 0 17.5 0C27.165 0 35 7.83502 35 17.5ZM10.5 22.75V24.5H24.5V22.75C24.5 20.825 21.35 19.25 17.5 19.25C13.65 19.25 10.5 20.825 10.5 22.75ZM14.5899 12.0555C14.2053 12.6311 14 13.3078 14 14C14 14.9283 14.3687 15.8185 15.0251 16.4749C15.6815 17.1312 16.5717 17.5 17.5 17.5C18.1922 17.5 18.8689 17.2947 19.4445 16.9101C20.0201 16.5255 20.4687 15.9789 20.7336 15.3394C20.9985 14.6998 21.0678 13.9961 20.9327 13.3172C20.7977 12.6382 20.4644 12.0146 19.9749 11.5251C19.4854 11.0356 18.8617 10.7023 18.1828 10.5673C17.5039 10.4322 16.8001 10.5015 16.1606 10.7664C15.5211 11.0313 14.9744 11.4799 14.5899 12.0555Z" fill="white"/>
<path d="M10 24.5V25H10.5H24.5H25V24.5V22.75C25 21.4948 23.9874 20.4909 22.6674 19.8309C21.316 19.1552 19.4865 18.75 17.5 18.75C15.5135 18.75 13.684 19.1552 12.3326 19.8309C11.0126 20.4909 10 21.4948 10 22.75V24.5ZM34.5 17.5C34.5 26.8888 26.8888 34.5 17.5 34.5C8.11116 34.5 0.5 26.8888 0.5 17.5C0.5 8.11116 8.11116 0.5 17.5 0.5C26.8888 0.5 34.5 8.11116 34.5 17.5ZM14.1741 11.7777C13.7346 12.4355 13.5 13.2089 13.5 14C13.5 15.0609 13.9214 16.0783 14.6716 16.8284C15.4217 17.5786 16.4391 18 17.5 18C18.2911 18 19.0645 17.7654 19.7223 17.3259C20.3801 16.8863 20.8928 16.2616 21.1955 15.5307C21.4983 14.7998 21.5775 13.9956 21.4231 13.2196C21.2688 12.4437 20.8878 11.731 20.3284 11.1716C19.769 10.6121 19.0563 10.2312 18.2804 10.0769C17.5044 9.92253 16.7002 10.0017 15.9693 10.3045C15.2384 10.6072 14.6136 11.1199 14.1741 11.7777Z" stroke="black" stroke-opacity="0.41"/>
</svg>
