<svg width="45" height="45" viewBox="0 0 45 45" fill="none" xmlns="http://www.w3.org/2000/svg">
<g filter="url(#filter0_d)">
<path d="M22.5 39C32.165 39 40 31.165 40 21.5C40 11.835 32.165 4 22.5 4C12.835 4 5 11.835 5 21.5C5 31.165 12.835 39 22.5 39Z" fill="white"/>
<path d="M39.5 21.5C39.5 30.8888 31.8888 38.5 22.5 38.5C13.1112 38.5 5.5 30.8888 5.5 21.5C5.5 12.1112 13.1112 4.5 22.5 4.5C31.8888 4.5 39.5 12.1112 39.5 21.5Z" stroke="black" stroke-opacity="0.41"/>
<path d="M15.5 28.5V26.75C15.5 24.825 18.65 23.25 22.5 23.25C26.35 23.25 29.5 24.825 29.5 26.75V28.5H15.5ZM19 18C19 17.3078 19.2053 16.6311 19.5899 16.0555C19.9744 15.4799 20.5211 15.0313 21.1606 14.7664C21.8001 14.5015 22.5039 14.4322 23.1828 14.5673C23.8617 14.7023 24.4854 15.0356 24.9749 15.5251C25.4644 16.0146 25.7977 16.6382 25.9327 17.3172C26.0678 17.9961 25.9985 18.6998 25.7336 19.3394C25.4687 19.9789 25.0201 20.5255 24.4445 20.9101C23.8689 21.2947 23.1922 21.5 22.5 21.5C21.5717 21.5 20.6815 21.1312 20.0251 20.4749C19.3687 19.8185 19 18.9283 19 18Z" fill="white"/>
<path d="M16 28V26.75C16 26.0802 16.5624 25.3341 17.7799 24.7253C18.966 24.1322 20.6365 23.75 22.5 23.75C24.3635 23.75 26.034 24.1322 27.2201 24.7253C28.4376 25.3341 29 26.0802 29 26.75V28H16ZM19.5 18C19.5 17.4066 19.6759 16.8266 20.0056 16.3333C20.3352 15.8399 20.8038 15.4554 21.3519 15.2283C21.9001 15.0013 22.5033 14.9419 23.0853 15.0577C23.6672 15.1734 24.2018 15.4591 24.6213 15.8787C25.0409 16.2982 25.3266 16.8328 25.4424 17.4147C25.5581 17.9967 25.4987 18.5999 25.2716 19.148C25.0446 19.6962 24.6601 20.1647 24.1667 20.4944C23.6734 20.824 23.0933 21 22.5 21C21.7043 21 20.9413 20.6839 20.3787 20.1213C19.8161 19.5587 19.5 18.7956 19.5 18Z" stroke="black" stroke-opacity="0.41"/>
</g>
<defs>
<filter id="filter0_d" x="0" y="0" width="45" height="45" filterUnits="userSpaceOnUse" color-interpolation-filters="sRGB">
<feFlood flood-opacity="0" result="BackgroundImageFix"/>
<feColorMatrix in="SourceAlpha" type="matrix" values="0 0 0 0 0 0 0 0 0 0 0 0 0 0 0 0 0 0 127 0"/>
<feOffset dy="1"/>
<feGaussianBlur stdDeviation="2.5"/>
<feColorMatrix type="matrix" values="0 0 0 0 0 0 0 0 0 0 0 0 0 0 0 0 0 0 0.1 0"/>
<feBlend mode="normal" in2="BackgroundImageFix" result="effect1_dropShadow"/>
<feBlend mode="normal" in="SourceGraphic" in2="effect1_dropShadow" result="shape"/>
</filter>
</defs>
</svg>
