<svg width="45" height="46" viewBox="0 0 45 46" fill="none" xmlns="http://www.w3.org/2000/svg">
<g filter="url(#filter0_d)">
<path d="M22.5 39.2822C32.165 39.2822 40 31.4472 40 21.7822C40 12.1172 32.165 4.28223 22.5 4.28223C12.835 4.28223 5 12.1172 5 21.7822C5 31.4472 12.835 39.2822 22.5 39.2822Z" fill="white"/>
<path d="M39.5 21.7822C39.5 31.1711 31.8888 38.7822 22.5 38.7822C13.1112 38.7822 5.5 31.1711 5.5 21.7822C5.5 12.3934 13.1112 4.78223 22.5 4.78223C31.8888 4.78223 39.5 12.3934 39.5 21.7822Z" stroke="black" stroke-opacity="0.41"/>
</g>
<path d="M14.5 29.7822V14.7822H30.5V29.7822H14.5Z" stroke="white" stroke-opacity="0.41"/>
<path d="M26.75 30.2822C26.1864 30.2822 25.6459 30.0715 25.2474 29.6964C24.8489 29.3214 24.625 28.8127 24.625 28.2822V26.2822C24.625 25.7518 24.8489 25.2431 25.2474 24.868C25.6459 24.4929 26.1864 24.2822 26.75 24.2822H28.875C29.4386 24.2822 29.9791 24.4929 30.3776 24.868C30.7761 25.2431 31 25.7518 31 26.2822V28.2822C31 28.8127 30.7761 29.3214 30.3776 29.6964C29.9791 30.0715 29.4386 30.2822 28.875 30.2822H26.75ZM16.125 30.2822C15.5614 30.2822 15.0209 30.0715 14.6224 29.6964C14.2239 29.3214 14 28.8127 14 28.2822V26.2822C14 25.7518 14.2239 25.2431 14.6224 24.868C15.0209 24.4929 15.5614 24.2822 16.125 24.2822H18.25C18.8136 24.2822 19.3541 24.4929 19.7526 24.868C20.1511 25.2431 20.375 25.7518 20.375 26.2822V28.2822C20.375 28.8127 20.1511 29.3214 19.7526 29.6964C19.3541 30.0715 18.8136 30.2822 18.25 30.2822H16.125ZM26.75 20.2822C26.1864 20.2822 25.6459 20.0715 25.2474 19.6964C24.8489 19.3214 24.625 18.8127 24.625 18.2822V16.2822C24.625 15.7518 24.8489 15.2431 25.2474 14.868C25.6459 14.4929 26.1864 14.2822 26.75 14.2822H28.875C29.4386 14.2822 29.9791 14.4929 30.3776 14.868C30.7761 15.2431 31 15.7518 31 16.2822V18.2822C31 18.8127 30.7761 19.3214 30.3776 19.6964C29.9791 20.0715 29.4386 20.2822 28.875 20.2822H26.75ZM16.125 20.2822C15.5614 20.2822 15.0209 20.0715 14.6224 19.6964C14.2239 19.3214 14 18.8127 14 18.2822V16.2822C14 15.7518 14.2239 15.2431 14.6224 14.868C15.0209 14.4929 15.5614 14.2822 16.125 14.2822H18.25C18.8136 14.2822 19.3541 14.4929 19.7526 14.868C20.1511 15.2431 20.375 15.7518 20.375 16.2822V18.2822C20.375 18.8127 20.1511 19.3214 19.7526 19.6964C19.3541 20.0715 18.8136 20.2822 18.25 20.2822H16.125Z" fill="white"/>
<path d="M26.75 29.7822C26.3096 29.7822 25.8928 29.6173 25.5901 29.3323C25.2884 29.0484 25.125 28.6699 25.125 28.2822V26.2822C25.125 25.8945 25.2884 25.5161 25.5901 25.2321C25.8928 24.9472 26.3096 24.7822 26.75 24.7822H28.875C29.3154 24.7822 29.7322 24.9472 30.0349 25.2321C30.3366 25.5161 30.5 25.8945 30.5 26.2822V28.2822C30.5 28.6699 30.3366 29.0484 30.0349 29.3323C29.7322 29.6173 29.3154 29.7822 28.875 29.7822H26.75ZM16.125 29.7822C15.6846 29.7822 15.2678 29.6173 14.9651 29.3323C14.6634 29.0484 14.5 28.6699 14.5 28.2822V26.2822C14.5 25.8945 14.6634 25.5161 14.9651 25.2321C15.2678 24.9472 15.6846 24.7822 16.125 24.7822H18.25C18.6904 24.7822 19.1072 24.9472 19.4099 25.2321C19.7116 25.5161 19.875 25.8945 19.875 26.2822V28.2822C19.875 28.6699 19.7116 29.0484 19.4099 29.3323C19.1072 29.6173 18.6904 29.7822 18.25 29.7822H16.125ZM26.75 19.7822C26.3096 19.7822 25.8928 19.6173 25.5901 19.3323C25.2884 19.0484 25.125 18.6699 25.125 18.2822V16.2822C25.125 15.8945 25.2884 15.5161 25.5901 15.2321C25.8928 14.9472 26.3096 14.7822 26.75 14.7822H28.875C29.3154 14.7822 29.7322 14.9472 30.0349 15.2321C30.3366 15.5161 30.5 15.8945 30.5 16.2822V18.2822C30.5 18.6699 30.3366 19.0484 30.0349 19.3323C29.7322 19.6173 29.3154 19.7822 28.875 19.7822H26.75ZM16.125 19.7822C15.6846 19.7822 15.2678 19.6173 14.9651 19.3323C14.6634 19.0484 14.5 18.6699 14.5 18.2822V16.2822C14.5 15.8945 14.6634 15.5161 14.9651 15.2321C15.2678 14.9472 15.6846 14.7822 16.125 14.7822H18.25C18.6904 14.7822 19.1072 14.9472 19.4099 15.2321C19.7116 15.5161 19.875 15.8945 19.875 16.2822V18.2822C19.875 18.6699 19.7116 19.0484 19.4099 19.3323C19.1072 19.6173 18.6904 19.7822 18.25 19.7822H16.125Z" stroke="black" stroke-opacity="0.41"/>
<defs>
<filter id="filter0_d" x="0" y="0.282227" width="45" height="45" filterUnits="userSpaceOnUse" color-interpolation-filters="sRGB">
<feFlood flood-opacity="0" result="BackgroundImageFix"/>
<feColorMatrix in="SourceAlpha" type="matrix" values="0 0 0 0 0 0 0 0 0 0 0 0 0 0 0 0 0 0 127 0"/>
<feOffset dy="1"/>
<feGaussianBlur stdDeviation="2.5"/>
<feColorMatrix type="matrix" values="0 0 0 0 0 0 0 0 0 0 0 0 0 0 0 0 0 0 0.1 0"/>
<feBlend mode="normal" in2="BackgroundImageFix" result="effect1_dropShadow"/>
<feBlend mode="normal" in="SourceGraphic" in2="effect1_dropShadow" result="shape"/>
</filter>
</defs>
</svg>
