<svg width="35" height="36" viewBox="0 0 35 36" fill="none" xmlns="http://www.w3.org/2000/svg">
<path fill-rule="evenodd" clip-rule="evenodd" d="M35 17.7822C35 27.4472 27.165 35.2822 17.5 35.2822C7.83502 35.2822 0 27.4472 0 17.7822C0 8.11724 7.83502 0.282227 17.5 0.282227C27.165 0.282227 35 8.11724 35 17.7822ZM20.2474 25.6964C20.6459 26.0715 21.1864 26.2822 21.75 26.2822H23.875C24.4386 26.2822 24.9791 26.0715 25.3776 25.6964C25.7761 25.3214 26 24.8127 26 24.2822V22.2822C26 21.7518 25.7761 21.2431 25.3776 20.868C24.9791 20.4929 24.4386 20.2822 23.875 20.2822H21.75C21.1864 20.2822 20.6459 20.4929 20.2474 20.868C19.8489 21.2431 19.625 21.7518 19.625 22.2822V24.2822C19.625 24.8127 19.8489 25.3214 20.2474 25.6964ZM9.6224 25.6964C10.0209 26.0715 10.5614 26.2822 11.125 26.2822H13.25C13.8136 26.2822 14.3541 26.0715 14.7526 25.6964C15.1511 25.3214 15.375 24.8127 15.375 24.2822V22.2822C15.375 21.7518 15.1511 21.2431 14.7526 20.868C14.3541 20.4929 13.8136 20.2822 13.25 20.2822H11.125C10.5614 20.2822 10.0209 20.4929 9.6224 20.868C9.22388 21.2431 9 21.7518 9 22.2822V24.2822C9 24.8127 9.22388 25.3214 9.6224 25.6964ZM20.2474 15.6964C20.6459 16.0715 21.1864 16.2822 21.75 16.2822H23.875C24.4386 16.2822 24.9791 16.0715 25.3776 15.6964C25.7761 15.3214 26 14.8127 26 14.2822V12.2822C26 11.7518 25.7761 11.2431 25.3776 10.868C24.9791 10.4929 24.4386 10.2822 23.875 10.2822H21.75C21.1864 10.2822 20.6459 10.4929 20.2474 10.868C19.8489 11.2431 19.625 11.7518 19.625 12.2822V14.2822C19.625 14.8127 19.8489 15.3214 20.2474 15.6964ZM9.6224 15.6964C10.0209 16.0715 10.5614 16.2822 11.125 16.2822H13.25C13.8136 16.2822 14.3541 16.0715 14.7526 15.6964C15.1511 15.3214 15.375 14.8127 15.375 14.2822V12.2822C15.375 11.7518 15.1511 11.2431 14.7526 10.868C14.3541 10.4929 13.8136 10.2822 13.25 10.2822H11.125C10.5614 10.2822 10.0209 10.4929 9.6224 10.868C9.22388 11.2431 9 11.7518 9 12.2822V14.2822C9 14.8127 9.22388 15.3214 9.6224 15.6964Z" fill="white"/>
<path d="M34.5 17.7822C34.5 27.1711 26.8888 34.7822 17.5 34.7822C8.11116 34.7822 0.5 27.1711 0.5 17.7822C0.5 8.39338 8.11116 0.782227 17.5 0.782227C26.8888 0.782227 34.5 8.39338 34.5 17.7822ZM19.9047 26.0605C20.399 26.5257 21.0633 26.7822 21.75 26.7822H23.875C24.5617 26.7822 25.226 26.5257 25.7203 26.0605C26.2156 25.5944 26.5 24.9554 26.5 24.2822V22.2822C26.5 21.6091 26.2156 20.9701 25.7203 20.5039C25.226 20.0387 24.5617 19.7822 23.875 19.7822H21.75C21.0633 19.7822 20.399 20.0387 19.9047 20.5039C19.4094 20.9701 19.125 21.6091 19.125 22.2822V24.2822C19.125 24.9554 19.4094 25.5944 19.9047 26.0605ZM9.27972 26.0605C9.774 26.5257 10.4383 26.7822 11.125 26.7822H13.25C13.9367 26.7822 14.601 26.5257 15.0953 26.0605C15.5906 25.5944 15.875 24.9554 15.875 24.2822V22.2822C15.875 21.6091 15.5906 20.9701 15.0953 20.5039C14.601 20.0387 13.9367 19.7822 13.25 19.7822H11.125C10.4383 19.7822 9.774 20.0387 9.27972 20.5039C8.7844 20.9701 8.5 21.6091 8.5 22.2822V24.2822C8.5 24.9554 8.7844 25.5944 9.27972 26.0605ZM19.9047 16.0605C20.399 16.5257 21.0633 16.7822 21.75 16.7822H23.875C24.5617 16.7822 25.226 16.5257 25.7203 16.0605C26.2156 15.5944 26.5 14.9554 26.5 14.2822V12.2822C26.5 11.6091 26.2156 10.9701 25.7203 10.5039C25.226 10.0387 24.5617 9.78223 23.875 9.78223H21.75C21.0633 9.78223 20.399 10.0387 19.9047 10.5039C19.4094 10.9701 19.125 11.6091 19.125 12.2822V14.2822C19.125 14.9554 19.4094 15.5944 19.9047 16.0605ZM9.27972 16.0605C9.774 16.5257 10.4383 16.7822 11.125 16.7822H13.25C13.9367 16.7822 14.601 16.5257 15.0953 16.0605C15.5906 15.5944 15.875 14.9554 15.875 14.2822V12.2822C15.875 11.6091 15.5906 10.9701 15.0953 10.5039C14.601 10.0387 13.9367 9.78223 13.25 9.78223H11.125C10.4383 9.78223 9.774 10.0387 9.27972 10.5039C8.7844 10.9701 8.5 11.6091 8.5 12.2822V14.2822C8.5 14.9554 8.7844 15.5944 9.27972 16.0605Z" stroke="black" stroke-opacity="0.41"/>
</svg>
